#!OML:ASF H:\BabyWalks\Project 1\Capture day 1\Session 1\baby.ASF
:FULLY-SPECIFIED
:DEGREES
1118
root -8.07902 17.5842 -1.4855 433.526 -85.5044 -437.778
lowerback 17.0718 -0.544239 0.991794
upperback -0.297113 -0.482573 0.833764
thorax -9.93594 -0.273757 0.467577
lowerneck -8.30391 1.09363 3.81071
upperneck 3.91944 1.28429 -4.07488
head 2.78844 0.553936 -1.9409
rclavicle -4.19933e-015 -7.95139e-016
rhumerus -24.6518 -19.3298 -18.7997
rradius 37.2899
rwrist 18.2035
rhand -7.38328 -19.891
rfingers 7.12502
rthumb 18.5022 -49.0311
lclavicle -4.19933e-015 -7.95139e-016
lhumerus -26.5871 27.5835 15.6647
lradius 38.3227
lwrist -15.736
lhand 7.98979 13.7963
lfingers 7.12502
lthumb 33.2173 40.7504
rfemur 0.388828 1.66055 17.9377
rtibia 22.6089
rfoot -17.7719 -19.1628
rtoes 2.32411
lfemur -5.68942 -8.7569 -6.93802
ltibia 29.3493
lfoot -24.4996 11.6312
ltoes -12.1865
1119
root -8.07548 17.5891 -1.53271 428.367 -85.2368 -432.669
lowerback 17.124 -0.660341 1.02388
upperback -0.251849 -0.617874 0.976247
thorax -9.91438 -0.336517 0.638789
lowerneck -8.48445 1.12801 3.89446
upperneck 3.81987 1.32193 -4.25053
head 2.79481 0.565419 -2.01308
rclavicle 2.68359e-015 -5.1684e-015
rhumerus -24.3755 -19.9043 -17.9005
rradius 37.1108
rwrist 18.1511
rhand -7.81416 -19.8357
rfingers 7.12502
rthumb 18.0876 -49.0147
lclavicle 2.68359e-015 -5.1684e-015
lhumerus -26.2658 28.5393 15.0705
lradius 37.872
lwrist -16.3004
lhand 7.24766 13.5552
lfingers 7.12502
lthumb 32.5114 40.6572
rfemur 0.64378 1.62493 18.3022
rtibia 22.3854
rfoot -17.909 -19.4635
rtoes 2.74724
lfemur -5.89444 -8.49676 -6.54671
ltibia 29.5324
lfoot -24.5182 11.136
ltoes -12.4347
1120
root -8.07231 17.5935 -1.57708 424.32 -84.953 -428.691
lowerback 17.1882 -0.753744 1.05782
upperback -0.198354 -0.723506 1.11339
thorax -9.89012 -0.385619 0.795823
lowerneck -8.65069 1.15487 3.95473
upperneck 3.69636 1.34855 -4.37709
head 2.78874 0.572841 -2.06485
rclavicle -2.29845e-015 -3.57812e-015
rhumerus -24.1267 -20.4958 -17.0257
rradius 36.9332
rwrist 18.1211
rhand -8.23402 -19.7902
rfingers 7.12502
rthumb 17.6837 -49.0061
lclavicle -2.29845e-015 -3.57812e-015
lhumerus -25.9065 29.3528 14.5548
lradius 37.4869
lwrist -16.8289
lhand 6.55412 13.3422
lfingers 7.12502
lthumb 31.8512 40.5779
rfemur 0.899308 1.64011 18.6704
rtibia 22.1724
rfoot -18.0272 -19.7877
rtoes 3.12774
lfemur -6.04456 -8.30741 -6.18561
ltibia 29.7093
lfoot -24.5103 10.8374
ltoes -12.5014
1121
root -8.06956 17.5971 -1.61835 421.228 -84.685 -425.68
lowerback 17.2611 -0.821581 1.0861
upperback -0.145333 -0.797627 1.23649
thorax -9.87124 -0.419907 0.933102
lowerneck -8.79512 1.17048 4.00144
upperneck 3.55704 1.35921 -4.46321
head 2.77153 0.573745 -2.10113
rclavicle -8.18744e-015 0
rhumerus -23.9146 -21.0954 -16.1783
rradius 36.7597
rwrist 18.1151
rhand -8.62907 -19.7501
rfingers 7.12502
rthumb 17.3035 -48.9998
lclavicle -8.18744e-015 0
lhumerus -25.5036 30.0192 14.1125
lradius 37.1643
lwrist -17.3259
lhand 5.94048 13.1515
lfingers 7.12502
lthumb 31.2666 40.5018
rfemur 1.13813 1.69863 19.0215
rtibia 21.9898
rfoot -18.1344 -20.116
rtoes 3.46222
lfemur -6.1344 -8.18624 -5.87151
ltibia 29.8671
lfoot -24.4674 10.7471
ltoes -12.3639
1122
root -8.06738 17.5998 -1.65639 419.036 -84.4471 -423.575
lowerback 17.3367 -0.863531 1.10933
upperback -0.0932043 -0.839692 1.34593
thorax -9.85488 -0.439104 1.05041
lowerneck -8.91731 1.18059 4.03501
upperneck 3.40338 1.36156 -4.50529
head 2.74386 0.572122 -2.12036
rclavicle 1.18028e-015 -1.19271e-014
rhumerus -23.7217 -21.712 -15.3667
rradius 36.5828
rwrist 18.1477
rhand -8.9692 -19.7161
rfingers 7.12502
rthumb 16.9761 -48.9943
lclavicle 1.18028e-015 -1.19271e-014
lhumerus -25.0626 30.5621 13.7308
lradius 36.899
lwrist -17.7906
lhand 5.42261 12.9729
lfingers 7.12502
lthumb 30.773 40.4174
rfemur 1.34325 1.77436 19.349
rtibia 21.8573
rfoot -18.2305 -20.4098
rtoes 3.74415
lfemur -6.15762 -8.12473 -5.59957
ltibia 29.9927
lfoot -24.3895 10.8523
ltoes -12.0009
